<?xml version="1.0" encoding="UTF-8"?>
<svg xmlns="http://www.w3.org/2000/svg" xmlns:xlink="http://www.w3.org/1999/xlink" viewBox="0 0 64 64" width="64px" height="64px">
<g id="surface97752544">
<path style="fill-rule:nonzero;fill:rgb(0%,0%,0%);fill-opacity:1;stroke-width:10;stroke-linecap:butt;stroke-linejoin:round;stroke:rgb(0%,0%,0%);stroke-opacity:1;stroke-miterlimit:10;" d="M 196.6875 41.046875 C 204.765625 45.890625 220.765625 64.25 220.921875 69.015625 L 220.921875 77.015625 C 220.921875 87.125 211.46875 96 202.90625 96 C 192.640625 96 184.078125 87.4375 184.078125 77.34375 C 184.078125 87.453125 175.75 96 165.484375 96 C 155.21875 96 147.140625 87.4375 147.140625 77.34375 C 147.140625 87.453125 138.421875 96 128.078125 96 L 127.90625 96 C 117.5625 96 108.84375 87.4375 108.84375 77.34375 C 108.84375 87.453125 100.84375 96 90.5 96 C 80.25 96 71.921875 87.4375 71.921875 77.34375 C 71.921875 87.4375 63.359375 96 53.09375 96 C 44.53125 96 35.0625 87.125 35.0625 77.015625 L 35.0625 69.015625 C 35.21875 64.25 51.21875 45.890625 59.296875 41.046875 C 66.5 40.40625 101.984375 40 128 40 C 154.015625 40 171.546875 40.15625 196.6875 41.046875 Z M 128 104.875 C 138.9375 104.875 145 98.65625 147.59375 93.9375 C 156.015625 108.421875 177.171875 108.59375 185.515625 94.03125 C 190.46875 102.765625 201.890625 106.140625 206.765625 104.484375 C 208.109375 118.578125 210.78125 198.5625 198.828125 210.75 C 169.3125 217.671875 87.546875 217.828125 57.171875 210.75 C 46.828125 197.671875 47.8125 119.671875 49.234375 104.484375 C 54.109375 106.140625 65.515625 102.765625 70.5625 94.03125 C 78.8125 108.59375 99.984375 108.421875 108.40625 93.9375 C 112.421875 100.859375 119.96875 105.1875 128 104.875 Z M 128 104.875 " transform="matrix(0.25,0,0,0.25,0,0)"/>
<path style=" stroke:none;fill-rule:nonzero;fill:rgb(98.823529%,36.078432%,36.078432%);fill-opacity:1;" d="M 32 10 C 25.496094 10 16.625 10.101562 14.824219 10.261719 C 12.804688 11.472656 8.804688 16.0625 8.765625 17.253906 L 8.765625 19.253906 C 8.765625 21.78125 11.132812 24 13.273438 24 C 15.839844 24 17.980469 21.859375 17.980469 19.335938 C 17.980469 21.859375 20.0625 24 22.625 24 C 25.210938 24 27.210938 21.863281 27.210938 19.335938 C 27.210938 21.859375 29.390625 24 31.976562 24 L 32.019531 24 C 34.605469 24 36.785156 21.863281 36.785156 19.335938 C 36.785156 21.859375 38.804688 24 41.371094 24 C 43.9375 24 46.019531 21.863281 46.019531 19.335938 C 46.019531 21.859375 48.160156 24 50.726562 24 C 52.867188 24 55.230469 21.78125 55.230469 19.253906 L 55.230469 17.253906 C 55.191406 16.0625 51.191406 11.472656 49.171875 10.261719 C 42.886719 10.039062 38.503906 10 32 10 Z M 27.101562 23.484375 C 24.996094 27.105469 19.703125 27.148438 17.640625 23.507812 C 16.378906 25.691406 13.527344 26.535156 12.308594 26.121094 C 11.953125 29.917969 11.707031 49.417969 14.292969 52.6875 C 21.886719 54.457031 42.328125 54.417969 49.707031 52.6875 C 52.695312 49.640625 52.027344 29.644531 51.691406 26.121094 C 50.472656 26.535156 47.617188 25.691406 46.378906 23.507812 C 44.292969 27.148438 39.003906 27.105469 36.898438 23.484375 C 36.25 24.664062 34.734375 26.21875 32 26.21875 C 29.992188 26.296875 28.105469 25.214844 27.101562 23.484375 Z M 22.839844 28 C 24.441406 28 25.898438 28 27.660156 29.960938 C 30.558594 29.660156 33.441406 29.660156 36.339844 29.960938 C 38.121094 28.019531 39.558594 28.019531 41.160156 28.019531 C 46.320312 28.019531 47.5625 35.640625 49.421875 42.199219 C 51.101562 48.300781 48.859375 48.460938 46.078125 48.460938 C 41.9375 48.300781 39.640625 45.300781 39.640625 42.28125 C 35.78125 42.921875 29.621094 43.160156 24.359375 42.28125 C 24.359375 45.300781 22.0625 48.300781 17.921875 48.460938 C 15.140625 48.460938 12.898438 48.300781 14.578125 42.199219 C 16.4375 35.597656 17.679688 28.019531 22.839844 28.019531 Z M 32 33.753906 C 32 33.753906 28.613281 36.878906 28 37.96875 L 30.214844 37.886719 L 30.214844 39.820312 C 30.214844 39.9375 31.851562 39.835938 32 39.835938 C 32.894531 39.871094 33.785156 39.902344 33.785156 39.820312 L 33.785156 37.886719 L 36 37.96875 C 35.386719 36.875 32 33.753906 32 33.753906 Z M 32 33.753906 "/>
</g>
</svg>
