<svg id="visual" viewBox="0 0 960 540" width="960" height="540" xmlns="http://www.w3.org/2000/svg" xmlns:xlink="http://www.w3.org/1999/xlink" version="1.1"><rect x="0" y="0" width="960" height="540" fill="#FFFFFF"></rect><path d="M0 178L22.8 179.2C45.7 180.3 91.3 182.7 137 176.3C182.7 170 228.3 155 274 158.8C319.7 162.7 365.3 185.3 411.2 186.7C457 188 503 168 548.8 162C594.7 156 640.3 164 686 165.8C731.7 167.7 777.3 163.3 823 164.5C868.7 165.7 914.3 172.3 937.2 175.7L960 179L960 0L937.2 0C914.3 0 868.7 0 823 0C777.3 0 731.7 0 686 0C640.3 0 594.7 0 548.8 0C503 0 457 0 411.2 0C365.3 0 319.7 0 274 0C228.3 0 182.7 0 137 0C91.3 0 45.7 0 22.8 0L0 0Z" fill="#ff9153"></path><path d="M0 117L22.8 119C45.7 121 91.3 125 137 126C182.7 127 228.3 125 274 134.2C319.7 143.3 365.3 163.7 411.2 162.3C457 161 503 138 548.8 132.8C594.7 127.7 640.3 140.3 686 140.2C731.7 140 777.3 127 823 131.8C868.7 136.7 914.3 159.3 937.2 170.7L960 182L960 0L937.2 0C914.3 0 868.7 0 823 0C777.3 0 731.7 0 686 0C640.3 0 594.7 0 548.8 0C503 0 457 0 411.2 0C365.3 0 319.7 0 274 0C228.3 0 182.7 0 137 0C91.3 0 45.7 0 22.8 0L0 0Z" fill="#ffa04d"></path><path d="M0 101L22.8 106.3C45.7 111.7 91.3 122.3 137 120.2C182.7 118 228.3 103 274 96.5C319.7 90 365.3 92 411.2 93.8C457 95.7 503 97.3 548.8 105.8C594.7 114.3 640.3 129.7 686 136.3C731.7 143 777.3 141 823 134.5C868.7 128 914.3 117 937.2 111.5L960 106L960 0L937.2 0C914.3 0 868.7 0 823 0C777.3 0 731.7 0 686 0C640.3 0 594.7 0 548.8 0C503 0 457 0 411.2 0C365.3 0 319.7 0 274 0C228.3 0 182.7 0 137 0C91.3 0 45.7 0 22.8 0L0 0Z" fill="#ffaf48"></path><path d="M0 83L22.8 84.3C45.7 85.7 91.3 88.3 137 85.8C182.7 83.3 228.3 75.7 274 75.8C319.7 76 365.3 84 411.2 89.7C457 95.3 503 98.7 548.8 98.2C594.7 97.7 640.3 93.3 686 93.2C731.7 93 777.3 97 823 93.8C868.7 90.7 914.3 80.3 937.2 75.2L960 70L960 0L937.2 0C914.3 0 868.7 0 823 0C777.3 0 731.7 0 686 0C640.3 0 594.7 0 548.8 0C503 0 457 0 411.2 0C365.3 0 319.7 0 274 0C228.3 0 182.7 0 137 0C91.3 0 45.7 0 22.8 0L0 0Z" fill="#ffbe45"></path><path d="M0 64L22.8 57.8C45.7 51.7 91.3 39.3 137 35C182.7 30.7 228.3 34.3 274 33.7C319.7 33 365.3 28 411.2 32.3C457 36.7 503 50.3 548.8 52.8C594.7 55.3 640.3 46.7 686 40.7C731.7 34.7 777.3 31.3 823 32C868.7 32.7 914.3 37.3 937.2 39.7L960 42L960 0L937.2 0C914.3 0 868.7 0 823 0C777.3 0 731.7 0 686 0C640.3 0 594.7 0 548.8 0C503 0 457 0 411.2 0C365.3 0 319.7 0 274 0C228.3 0 182.7 0 137 0C91.3 0 45.7 0 22.8 0L0 0Z" fill="#ffce44"></path></svg>