<svg id="visual" viewBox="0 0 540 960" width="540" height="960" xmlns="http://www.w3.org/2000/svg" xmlns:xlink="http://www.w3.org/1999/xlink" version="1.1"><rect x="0" y="0" width="540" height="960" fill="#FFFFFF"></rect><path d="M0 317L12.8 319C25.7 321 51.3 325 77 313.7C102.7 302.3 128.3 275.7 154 282.7C179.7 289.7 205.3 330.3 231.2 333C257 335.7 283 300.3 308.8 289.7C334.7 279 360.3 293 386 296C411.7 299 437.3 291 463 293C488.7 295 514.3 307 527.2 313L540 319L540 0L527.2 0C514.3 0 488.7 0 463 0C437.3 0 411.7 0 386 0C360.3 0 334.7 0 308.8 0C283 0 257 0 231.2 0C205.3 0 179.7 0 154 0C128.3 0 102.7 0 77 0C51.3 0 25.7 0 12.8 0L0 0Z" fill="#ff9153"></path><path d="M0 208L12.8 211.7C25.7 215.3 51.3 222.7 77 224.5C102.7 226.3 128.3 222.7 154 239.2C179.7 255.7 205.3 292.3 231.2 290C257 287.7 283 246.3 308.8 237C334.7 227.7 360.3 250.3 386 250C411.7 249.7 437.3 226.3 463 234.8C488.7 243.3 514.3 283.7 527.2 303.8L540 324L540 0L527.2 0C514.3 0 488.7 0 463 0C437.3 0 411.7 0 386 0C360.3 0 334.7 0 308.8 0C283 0 257 0 231.2 0C205.3 0 179.7 0 154 0C128.3 0 102.7 0 77 0C51.3 0 25.7 0 12.8 0L0 0Z" fill="#ffa04d"></path><path d="M0 180L12.8 189.5C25.7 199 51.3 218 77 214C102.7 210 128.3 183 154 171.5C179.7 160 205.3 164 231.2 167.5C257 171 283 174 308.8 189.2C334.7 204.3 360.3 231.7 386 243.7C411.7 255.7 437.3 252.3 463 240.7C488.7 229 514.3 209 527.2 199L540 189L540 0L527.2 0C514.3 0 488.7 0 463 0C437.3 0 411.7 0 386 0C360.3 0 334.7 0 308.8 0C283 0 257 0 231.2 0C205.3 0 179.7 0 154 0C128.3 0 102.7 0 77 0C51.3 0 25.7 0 12.8 0L0 0Z" fill="#ffaf48"></path><path d="M0 148L12.8 150.5C25.7 153 51.3 158 77 153.7C102.7 149.3 128.3 135.7 154 135.8C179.7 136 205.3 150 231.2 160.2C257 170.3 283 176.7 308.8 176C334.7 175.3 360.3 167.7 386 167.3C411.7 167 437.3 174 463 168.2C488.7 162.3 514.3 143.7 527.2 134.3L540 125L540 0L527.2 0C514.3 0 488.7 0 463 0C437.3 0 411.7 0 386 0C360.3 0 334.7 0 308.8 0C283 0 257 0 231.2 0C205.3 0 179.7 0 154 0C128.3 0 102.7 0 77 0C51.3 0 25.7 0 12.8 0L0 0Z" fill="#ffbe45"></path><path d="M0 115L12.8 103.8C25.7 92.7 51.3 70.3 77 62.7C102.7 55 128.3 62 154 60.8C179.7 59.7 205.3 50.3 231.2 57.8C257 65.3 283 89.7 308.8 94.2C334.7 98.7 360.3 83.3 386 72.7C411.7 62 437.3 56 463 57.3C488.7 58.7 514.3 67.3 527.2 71.7L540 76L540 0L527.2 0C514.3 0 488.7 0 463 0C437.3 0 411.7 0 386 0C360.3 0 334.7 0 308.8 0C283 0 257 0 231.2 0C205.3 0 179.7 0 154 0C128.3 0 102.7 0 77 0C51.3 0 25.7 0 12.8 0L0 0Z" fill="#ffce44"></path></svg>