<?xml version="1.0" encoding="UTF-8"?>
<svg xmlns="http://www.w3.org/2000/svg" xmlns:xlink="http://www.w3.org/1999/xlink" viewBox="0 0 96 96" width="96px" height="96px">
<g id="surface97554759">
<path style="fill-rule:nonzero;fill:rgb(0%,0%,0%);fill-opacity:1;stroke-width:10;stroke-linecap:butt;stroke-linejoin:round;stroke:rgb(0%,0%,0%);stroke-opacity:1;stroke-miterlimit:10;" d="M 192 181.333333 L 176 168 L 212.270833 128 L 176 88 L 192 74.666667 L 240 128 Z M 69.333333 181.333333 L 21.333333 128 L 69.333333 74.666667 L 85.333333 88 L 48.53125 128 L 85.333333 168 Z M 112 208 L 91.729167 201.0625 L 144 48 L 164.270833 54.9375 Z M 112 208 " transform="matrix(0.375,0,0,0.375,0,0)"/>
<path style=" stroke:none;fill-rule:nonzero;fill:rgb(15.686275%,13.333334%,12.54902%);fill-opacity:1;" d="M 72 68 L 66 63 L 79.601562 48 L 66 33 L 72 28 L 90 48 Z M 26 68 L 8 48 L 26 28 L 32 33 L 18.199219 48 L 32 63 Z M 26 68 "/>
<path style=" stroke:none;fill-rule:nonzero;fill:rgb(96.862745%,50.588238%,32.941177%);fill-opacity:1;" d="M 42 78 L 34.398438 75.398438 L 54 18 L 61.601562 20.601562 Z M 42 78 "/>
</g>
</svg>
