<?xml version="1.0" encoding="UTF-8"?>
<svg xmlns="http://www.w3.org/2000/svg" xmlns:xlink="http://www.w3.org/1999/xlink" viewBox="0 0 48 48" width="48px" height="48px">
<g id="surface97312491">
<path style="fill-rule:nonzero;fill:rgb(0%,0%,0%);fill-opacity:1;stroke-width:10;stroke-linecap:butt;stroke-linejoin:round;stroke:rgb(0%,0%,0%);stroke-opacity:1;stroke-miterlimit:10;" d="M 48 149.333333 L 64 149.333333 L 64 208 L 170.666667 208 L 170.666667 149.333333 L 186.666667 149.333333 L 186.666667 224 L 48 224 Z M 80 181.333333 L 154.666667 181.333333 L 154.666667 197.333333 L 80 197.333333 Z M 80.4375 150.708333 L 154.666667 158.708333 L 152.958333 174.625 L 78.708333 166.625 Z M 196.645833 32 L 208.020833 105.791667 L 192.208333 108.229167 L 180.833333 34.4375 Z M 151.833333 43.9375 L 188.270833 109.083333 L 174.3125 116.895833 L 137.875 51.729167 Z M 109.333333 77.604167 L 170.666667 120.166667 L 161.541667 133.333333 L 100.208333 90.75 Z M 90.125 113.166667 L 160.375 138.4375 L 154.958333 153.5 L 84.708333 128.229167 Z M 90.125 113.166667 " transform="matrix(0.1875,0,0,0.1875,0,0)"/>
<path style=" stroke:none;fill-rule:nonzero;fill:rgb(37.64706%,49.019608%,54.509807%);fill-opacity:1;" d="M 9 28 L 12 28 L 12 42 L 9 42 Z M 9 28 "/>
<path style=" stroke:none;fill-rule:nonzero;fill:rgb(37.64706%,49.019608%,54.509807%);fill-opacity:1;" d="M 9 39 L 35 39 L 35 42 L 9 42 Z M 9 39 "/>
<path style=" stroke:none;fill-rule:nonzero;fill:rgb(37.64706%,49.019608%,54.509807%);fill-opacity:1;" d="M 32 28 L 35 28 L 35 42 L 32 42 Z M 15 34 L 29 34 L 29 37 L 15 37 Z M 15 34 "/>
<path style=" stroke:none;fill-rule:nonzero;fill:rgb(65.098041%,54.11765%,43.137255%);fill-opacity:1;" d="M 15.082031 28.257812 L 29 29.757812 L 28.679688 32.742188 L 14.757812 31.242188 Z M 15.082031 28.257812 "/>
<path style=" stroke:none;fill-rule:nonzero;fill:rgb(93.725491%,42.352942%,0%);fill-opacity:1;" d="M 36.871094 6 L 39.003906 19.835938 L 36.039062 20.292969 L 33.90625 6.457031 Z M 36.871094 6 "/>
<path style=" stroke:none;fill-rule:nonzero;fill:rgb(100%,59.607846%,0%);fill-opacity:1;" d="M 28.46875 8.238281 L 35.300781 20.453125 L 32.683594 21.917969 L 25.851562 9.699219 Z M 28.46875 8.238281 "/>
<path style=" stroke:none;fill-rule:nonzero;fill:rgb(82.745099%,54.509807%,15.686275%);fill-opacity:1;" d="M 20.5 14.550781 L 32 22.53125 L 30.289062 25 L 18.789062 17.015625 Z M 20.5 14.550781 "/>
<path style=" stroke:none;fill-rule:nonzero;fill:rgb(75.294119%,58.431375%,32.549021%);fill-opacity:1;" d="M 16.898438 21.21875 L 30.070312 25.957031 L 29.054688 28.78125 L 15.882812 24.042969 Z M 16.898438 21.21875 "/>
</g>
</svg>
