<svg xmlns="http://www.w3.org/2000/svg"  viewBox="0 0 64 64" width="64px" height="64px"><g data-name="05-twitter"><rect width="62" height="62" x="1" y="1" fill="#55d0f2" rx="6"/><path fill="#61ddff" d="M57,1H7A6,6,0,0,0,1,7V17A22,22,0,0,0,23,39H41A22,22,0,0,0,63,17V7A6,6,0,0,0,57,1Z"/><path fill="#9ceaff" d="M57,1H7A6,6,0,0,0,1,7v4A6,6,0,0,1,7,5H57a6,6,0,0,1,6,6V7A6,6,0,0,0,57,1Z"/><path fill="#52aff4" d="M57,59H7a6,6,0,0,1-6-6v4a6,6,0,0,0,6,6H57a6,6,0,0,0,6-6V53A6,6,0,0,1,57,59Z"/><path fill="#fdfef9" d="M54,21.263s-.6,4.026-3.676,5.619c0,.116,0,.233-.009.349A21.941,21.941,0,0,1,44.65,41.377a23.31,23.31,0,0,1-30.571,3.436A20.026,20.026,0,0,0,20.3,40.831a22.332,22.332,0,0,1-4.39-3.686,5.212,5.212,0,0,0,1.7-1.083,8.018,8.018,0,0,1-4.106-1.995,22.132,22.132,0,0,1-1.971-3.839A5.514,5.514,0,0,0,13.951,28.9a7.092,7.092,0,0,1-3.282-1.36A21.75,21.75,0,0,1,10,22.158a21.218,21.218,0,0,1,.284-3.508A20.3,20.3,0,0,0,26.5,26.632,11.776,11.776,0,0,1,38.417,15a12.078,12.078,0,0,1,5.756,1.449,11.864,11.864,0,0,1,4.5,4.295,10.945,10.945,0,0,0,4.409-3.06s0,3.579-1.833,4.474A4.6,4.6,0,0,0,54,21.263Z"/><path fill="#52aff4" d="M15.913,37.145a5.212,5.212,0,0,0,1.7-1.083,8.018,8.018,0,0,1-4.106-1.995c-.117-.183-.215-.381-.328-.568a6.092,6.092,0,0,1-1.643.729,22.132,22.132,0,0,0,1.971,3.839,8.018,8.018,0,0,0,4.106,1.995,5.212,5.212,0,0,1-1.7,1.083,22.432,22.432,0,0,0,1.795,1.733,19.9,19.9,0,0,0,2.6-2.047A22.332,22.332,0,0,1,15.913,37.145Z"/><path fill="#52aff4" d="M50.324,26.882c0,.116,0,.233-.009.349A21.946,21.946,0,0,1,44.65,41.377a23.28,23.28,0,0,1-26.941,5.5,20,20,0,0,1-3.63,1.936A23.31,23.31,0,0,0,44.65,45.377a21.946,21.946,0,0,0,5.665-14.146c.009-.116.009-.233.009-.349C53.4,29.289,54,25.263,54,25.263a4.331,4.331,0,0,1-2.6.889A5.587,5.587,0,0,1,50.324,26.882Z"/><path fill="#52aff4" d="M13.951,28.9a7.092,7.092,0,0,1-3.282-1.36,21.639,21.639,0,0,1-.57-3.395c-.061.663-.1,1.332-.1,2.009a21.75,21.75,0,0,0,.669,5.386,8.655,8.655,0,0,0,1.99,1.046,21.439,21.439,0,0,1-1.119-2.362A5.514,5.514,0,0,0,13.951,28.9Z"/><path d="M9.7,27.791a.994.994,0,0,0,.4.573,10.552,10.552,0,0,0,1.4.833q-.108.036-.225.069a1,1,0,0,0-.661,1.328,23.109,23.109,0,0,0,2.06,4.013,1.007,1.007,0,0,0,.2.227,11.528,11.528,0,0,0,2.38,1.562,1,1,0,0,0-.072,1.426,23.27,23.27,0,0,0,3.5,3.111,18.949,18.949,0,0,1-4.972,2.952,1,1,0,0,0-.2,1.746A24.31,24.31,0,0,0,45.4,42.045a23.009,23.009,0,0,0,5.913-14.578c3.04-1.948,3.655-5.882,3.681-6.057a1,1,0,0,0-.534-1.037.989.989,0,0,0-.754-.064,9.977,9.977,0,0,0,.382-2.625,1,1,0,0,0-1.825-.565,8.215,8.215,0,0,1-3.222,2.352,12.832,12.832,0,0,0-4.387-3.9A13.138,13.138,0,0,0,38.417,14,12.823,12.823,0,0,0,25.542,25.608a19.393,19.393,0,0,1-14.461-7.562,1,1,0,0,0-1.783.439A22.325,22.325,0,0,0,9,22.158,22.828,22.828,0,0,0,9.7,27.791Zm1.328-6.73A21.5,21.5,0,0,0,26.5,27.631a1,1,0,0,0,1-1A10.789,10.789,0,0,1,38.417,16,11.128,11.128,0,0,1,43.7,17.329a10.848,10.848,0,0,1,4.12,3.932,1,1,0,0,0,1.263.4,19.55,19.55,0,0,0,2.478-1.3,1.781,1.781,0,0,1-.747.906,1,1,0,0,0,.438,1.9,6.72,6.72,0,0,0,1.164-.118,5.894,5.894,0,0,1-2.549,2.954,1,1,0,0,0-.541.888c0,.091,0,.182-.009.324a21.032,21.032,0,0,1-5.408,13.5,22.326,22.326,0,0,1-27.749,4.254,20.923,20.923,0,0,0,4.831-3.4,1,1,0,0,0-.146-1.571A21.236,21.236,0,0,1,17.555,37.4a4.939,4.939,0,0,0,.793-.65,1,1,0,0,0-.64-1.679A6.906,6.906,0,0,1,14.27,33.4a21.244,21.244,0,0,1-1.4-2.59,5.871,5.871,0,0,0,1.813-1.221,1,1,0,0,0-.642-1.677,5.648,5.648,0,0,1-2.493-.978A20.939,20.939,0,0,1,11,22.158C11,21.789,11.01,21.423,11.028,21.061Z"/><path d="M62,57a5.006,5.006,0,0,1-5,5H7a5.006,5.006,0,0,1-5-5V7A5.006,5.006,0,0,1,7,2H9V0H7A7.008,7.008,0,0,0,0,7V57a7.008,7.008,0,0,0,7,7H57a7.008,7.008,0,0,0,7-7V55H62Z"/><path d="M57,0H15V2H57c4.351,0,5,5.639,5,9V53h2V11C64,1.072,59.1,0,57,0Z"/><rect width="2" height="2" x="11"/></g></svg>